



The story of one outrageous woman. Caught between two men. Both of them certain of one thing... 
Maureen is pregnant and her husband Eddie is missing. Nervous, Maureen shares a couple of drinks with neighbor Kiefer, who tries to rape her and then beats her. When Eddie returns and finds his wife bruised, he goes ballistic, shoots a paramedic and is put in a psychiatric institution. Ten years later, Eddie is released and finds that Maureen has divorced him and is remarried with three children, one of whom is his little girl Jeanie. Eddie goes to reclaim his wife.






General
Complete name                    : She's So Lovely 1997 DVDRip GoGoShe's So Lovely 1997 DVDRip GoGo.avi
IMDB Link                        :[url]http://www.imdb.com/title/tt0120112/[/url]
Format                           : AVI
Format/Info                      : Audio Video Interleave
File size                        : 700 MiB
Duration                         : 1h 36mn
Overall bit rate                 : 1 014 Kbps
Writing application              : VirtualDubMod 1.5.4.1 (build 2178/release)
Writing library                  : VirtualDubMod build 2178/release

Video
ID                               : 0
Format                           : MPEG-4 Visual
Format profile                   : Advanced Simple@L5
Format settings, BVOP            : Yes
Format settings, QPel            : No
Format settings, GMC             : No warppoints
Format settings, Matrix          : Custom
Codec ID                         : XVID
Codec ID/Hint                    : XviD
Duration                         : 1h 36mn
Bit rate                         : 891 Kbps
Width                            : 688 pixels
Height                           : 272 pixels
Display aspect ratio             : 2.529
Frame rate                       : 23.976 fps
Color space                      : YUV
Chroma subsampling               : 4:2:0
Bit depth                        : 8 bits
Scan type                        : Progressive
Bits/(Pixel*Frame)               : 0.199
Stream size                      : 615 MiB (88%)
Writing library                  : XviD 1.2.1 (UTC 2008-12-04)

Audio
ID                               : 1
Format                           : MPEG Audio
Format version                   : Version 1
Format profile                   : Layer 3
Mode                             : Joint stereo
Mode extension                   : MS Stereo
Codec ID                         : 55
Codec ID/Hint                    : MP3
Duration                         : 1h 36mn
Bit rate mode                    : Variable
Bit rate                         : 111 Kbps
Nominal bit rate                 : 128 Kbps
Channel(s)                       : 2 channels
Sampling rate                    : 48.0 KHz
Stream size                      : 76.4 MiB (11%)
Alignment                        : Aligned on interleaves
Interleave, duration             : 24 ms (0.58 video frame)
Interleave, preload duration     : 166 ms
Writing library                  : LAME3.98r
Encoding settings                : -m j -V 4 -q 2 -lowpass 17 --abr 128
Language                         : English
Subtitles                        : English.(.IDX+*.SUB)
                                 : English.(.srt)
Genre                            : Comedy | Drama | Romance  

[img]http://imgboot.com/images/fasamoo/pleaseseed.gif[/img]